<svg width="16" height="16" viewBox="0 0 16 16" fill="none" xmlns="http://www.w3.org/2000/svg">
<g clip-path="url(#clip0_7_10)">
<path d="M15.698 7.287L8.71199 0.302001C8.61634 0.206303 8.50277 0.130388 8.37777 0.078594C8.25277 0.0267998 8.11879 0.000141144 7.98349 0.000141144C7.84818 0.000141144 7.71421 0.0267998 7.58921 0.078594C7.46421 0.130388 7.35064 0.206303 7.25499 0.302001L5.80499 1.752L7.64499 3.592C7.86199 3.51791 8.09546 3.50632 8.31873 3.55855C8.54201 3.61078 8.7461 3.72473 8.90772 3.88739C9.06934 4.05006 9.18198 4.25488 9.23277 4.47849C9.28357 4.70209 9.27047 4.93548 9.19499 5.152L10.968 6.926C11.2303 6.83364 11.5162 6.83336 11.7787 6.92521C12.0412 7.01705 12.2646 7.19555 12.4121 7.4313C12.5596 7.66706 12.6225 7.94601 12.5903 8.22224C12.5581 8.49847 12.4328 8.75549 12.235 8.951C12.0348 9.15244 11.7708 9.27813 11.4882 9.30658C11.2057 9.33503 10.922 9.26449 10.6856 9.107C10.4492 8.94951 10.2749 8.71484 10.1924 8.44309C10.1098 8.17133 10.1242 7.87934 10.233 7.617L8.57999 5.963V10.316C8.83125 10.4404 9.03229 10.6471 9.1496 10.9017C9.26692 11.1564 9.29342 11.4435 9.2247 11.7153C9.15597 11.9871 8.99616 12.2271 8.77191 12.3954C8.54767 12.5637 8.27252 12.65 7.99235 12.64C7.71217 12.63 7.44389 12.5242 7.23221 12.3404C7.02054 12.1566 6.87827 11.9058 6.8291 11.6297C6.77994 11.3537 6.82686 11.0692 6.96204 10.8236C7.09722 10.578 7.3125 10.3861 7.57199 10.28V5.887C7.42228 5.82566 7.28619 5.73528 7.17157 5.6211C7.05695 5.50691 6.96606 5.37116 6.90415 5.22168C6.84224 5.07221 6.81053 4.91195 6.81085 4.75016C6.81116 4.58837 6.8435 4.42824 6.90599 4.279L5.09299 2.465L0.302989 7.255C0.207291 7.35065 0.131376 7.46422 0.079582 7.58922C0.0277878 7.71422 0.00112915 7.8482 0.00112915 7.9835C0.00112915 8.11881 0.0277878 8.25278 0.079582 8.37778C0.131376 8.50278 0.207291 8.61635 0.302989 8.712L7.28899 15.698C7.38464 15.7937 7.49821 15.8696 7.62321 15.9214C7.74821 15.9732 7.88218 15.9999 8.01749 15.9999C8.15279 15.9999 8.28677 15.9732 8.41177 15.9214C8.53677 15.8696 8.65034 15.7937 8.74599 15.698L15.699 8.745C15.892 8.55169 16.0004 8.28968 16.0004 8.0165C16.0004 7.74332 15.892 7.48131 15.699 7.288" fill="#F03C2E"/>
</g>
<defs>
<clipPath id="clip0_7_10">
<rect width="16" height="16" fill="white"/>
</clipPath>
</defs>
</svg>
