<svg width="100" height="100" viewBox="0 0 100 100" fill="none" xmlns="http://www.w3.org/2000/svg">
<g clip-path="url(#clip0_0_1)">
<path d="M52 95.6C49.7333 95.6 47.9667 94.8667 46.7 93.4C45.5 91.8667 44.8 89.2333 44.6 85.5C44.4667 81.5667 44.1333 77.6667 43.6 73.8C43.1333 69.8667 42.4667 66.2 41.6 62.8C40.4667 57.8667 38.9333 53.3333 37 49.2C35.1333 45 32.5333 41.5667 29.2 38.9C28.6667 38.4333 28.2333 38 27.9 37.6C27.5667 37.1333 27.4 36.5667 27.4 35.9C27.4 34.4333 28.1333 33.0333 29.6 31.7C31.1333 30.3667 32.9 29.7 34.9 29.7C37.2333 29.7 39.2333 30.6667 40.9 32.6C42.5667 34.5333 44.0667 37.2333 45.4 40.7C47.6667 46.1667 49.3 52.3 50.3 59.1C51.3667 65.8333 51.9667 72.3333 52.1 78.6C52.1667 80.4667 52.4333 81.7333 52.9 82.4C53.3667 83 54.1667 83.3 55.3 83.3C57.7 83.3 60.0333 82.3667 62.3 80.5C64.6333 78.6333 66.7333 76.1 68.6 72.9C70.5333 69.7 72.0667 66.0667 73.2 62C74.3333 57.9333 74.9 53.6667 74.9 49.2C74.9 46.4667 74.7 44.2667 74.3 42.6C73.9667 40.8667 73.5667 39.5 73.1 38.5C72.5 37.1667 72.2 36.1 72.2 35.3C72.2 34.3 72.6667 33.3667 73.6 32.5C74.5333 31.6333 75.6 30.9333 76.8 30.4C78.0667 29.8 79.2 29.5 80.2 29.5C81.5333 29.5 82.5 30 83.1 31C83.7 31.9333 84.1 33.1333 84.3 34.6C84.5 36.0667 84.6 37.5667 84.6 39.1C84.6 43.7 84.0667 48.5667 83 53.7C81.9333 58.8333 80.4 63.9 78.4 68.9C76.4667 73.8333 74.1333 78.3333 71.4 82.4C68.7333 86.4 65.7667 89.6 62.5 92C59.2333 94.4 55.7333 95.6 52 95.6Z" fill="#84ADFF"/>
<path d="M32.2 71.3C27.6667 71.3 24.1667 70.8 21.7 69.8C19.2333 68.8 17.5333 67.4 16.6 65.6C15.6667 63.8 15.2 61.6667 15.2 59.2C15.2 58 15.3 56.6667 15.5 55.2C15.7 53.6667 15.9333 51.9333 16.2 50C17.4 42.6667 18 36.1667 18 30.5C18 26.7667 17.8333 23.6 17.5 21C17.2333 18.3333 16.3667 15.8 14.9 13.4C14.6333 13 14.4 12.6 14.2 12.2C14 11.7333 13.9 11.3667 13.9 11.1C13.9 10.3 14.3667 9.46667 15.3 8.6C16.2333 7.73333 17.3667 7 18.7 6.4C20.0333 5.8 21.3 5.5 22.5 5.5C24.7667 5.5 26.1667 6.4 26.7 8.2C27.3 10 27.6 12.5667 27.6 15.9C27.6 17.1667 27.4667 19.2 27.2 22C26.9333 24.7333 26.5333 28.2333 26 32.5C25.4667 36.6333 25.0667 40.2 24.8 43.2C24.5333 46.2 24.4 48.6 24.4 50.4C24.4 53.0667 24.7 55.1 25.3 56.5C25.9667 57.8333 27.0333 58.7667 28.5 59.3C29.9667 59.8333 32.0333 60.1 34.7 60.1C37.5667 60.1 40.3 59.8667 42.9 59.4C45.5 58.8667 48.0333 58.0667 50.5 57C50.8333 56.8667 51.1333 56.7667 51.4 56.7C51.6667 56.6333 51.9 56.6 52.1 56.6C52.7 56.6 53.2667 56.9667 53.8 57.7C54.3333 58.4333 54.6 59.4667 54.6 60.8C54.6 63.7333 53 66.0333 49.8 67.7C45.5333 70.1 39.6667 71.3 32.2 71.3Z" fill="#5488F0"/>
</g>
<defs>
<clipPath id="clip0_0_1">
<rect width="100" height="100" fill="white"/>
</clipPath>
</defs>
</svg>
