<svg width="451" height="451" viewBox="0 0 451 451" fill="none" xmlns="http://www.w3.org/2000/svg">
<path d="M302.145 437.012C290.169 440.358 278.712 444.192 266.986 446.84C246.11 451.552 224.721 450.906 203.657 449.564C188.834 448.62 174.044 444.714 159.603 440.793C137.229 434.716 116.317 424.895 97.6831 411.033C85.313 401.832 73.025 392.21 62.2407 381.259C46.1271 364.896 33.0176 346.087 22.739 325.368C12.8141 305.363 5.30118 284.384 2.46087 262.423C-0.0557859 242.965 -0.436095 223.032 0.398475 203.4C1.11583 186.525 5.49364 169.973 10.8808 153.755C19.7923 126.928 33.3822 102.931 51.2598 81.0935C68.9881 59.4379 90.247 42.2017 114.345 28.2579C132.411 17.8041 151.661 10.0656 171.994 5.71214C185.711 2.77508 199.814 0.735572 213.812 0.248916C229.8 -0.306923 246.075 -0.0661051 261.834 2.366C277.168 4.73255 292.28 9.52919 306.99 14.6841C323.199 20.3642 338.595 28.2801 352.288 38.7826C364.531 48.1725 376.941 57.6176 387.731 68.5632C403.852 84.9178 416.963 103.717 427.262 124.433C437.206 144.435 443.849 165.499 447.865 187.329C451.483 207.001 451.063 227.095 449.718 246.872C448.097 270.715 441.609 293.77 431.941 315.709C423.545 334.761 412.438 352.173 399.275 368.377C384.81 386.183 367.77 400.955 348.828 413.688C334.382 423.397 318.88 431.016 302.145 437.012ZM197.384 378.618C197.592 378.339 197.799 378.06 198.006 377.952C198.006 377.952 197.835 377.947 198.299 377.507C198.476 376.91 198.653 376.312 198.872 375.87C198.872 375.87 198.712 375.893 199.247 375.45C199.085 374.219 198.922 372.989 198.795 371.569C198.795 371.569 198.985 371.599 198.725 371.018C198.485 370.669 198.244 370.32 198.044 369.972C198.044 369.972 198.012 369.999 198.034 369.323C198.037 368.873 198.04 368.422 197.887 367.264C196.89 366.241 195.955 364.407 194.885 364.325C187.851 363.783 180.79 363.521 173.734 363.452C172.842 363.443 171.934 365.086 171.039 365.966C171.039 365.966 171.037 365.96 170.316 366.097C168.881 366.388 167.446 366.679 165.348 366.954C164.905 366.952 164.462 366.95 163.649 366.53C163.138 366.321 162.627 366.111 161.755 365.208C154.151 365.319 146.045 363.8 139.068 365.949C130.164 368.691 129.08 383.544 136.981 387.961C145.851 392.921 155.672 392.353 164.923 388.961C167.747 387.926 169.606 387.378 172.356 389.515C173.214 389.592 174.072 389.67 175.308 390.103C175.884 389.723 176.459 389.342 177.567 388.421C179.194 386.297 180.822 384.172 182.924 382.164C183.329 382.656 183.734 383.149 184.473 384.121C184.778 384.364 185.083 384.606 185.213 384.833C185.213 384.833 185.251 384.661 185.277 385.379C186.652 388.279 187.954 391.295 192.944 389.809C194.262 389.764 195.58 389.72 197.307 390.066C197.954 389.91 198.601 389.753 199.981 389.711C200.967 389.715 201.953 389.719 203.395 390.136C207.703 386.852 212.412 385.536 217.797 386.937C220.62 387.671 223.516 388.119 226.382 388.747C226.382 388.747 226.409 388.703 226.499 389.43C229.237 389.641 231.971 389.949 234.713 390.044C244.74 390.389 254.771 390.925 264.797 390.866C270.954 390.829 277.105 389.398 283.258 389.401C289.494 389.404 295.728 390.421 301.968 390.945C303.116 391.042 304.383 391.177 305.414 390.799C306.307 390.472 306.944 389.442 307.717 388.768C307.717 388.768 307.722 388.718 308.351 388.733C308.718 387.799 309.085 386.865 309.371 385.413C309.336 385.243 309.3 385.072 309.471 384.375C308.565 382.475 307.659 380.574 306.882 378.83C306.882 378.83 306.718 378.71 307.427 378.71C308.166 378.048 308.906 377.387 309.646 376.726C309.003 376.208 308.361 375.691 307.77 375.117C307.77 375.117 307.738 375.189 307.867 374.427C308.102 372.01 308.878 370.837 311.752 371.705C313.332 372.182 315.655 371.939 316.939 371.028C317.783 370.43 318.067 367.514 317.359 366.614C316.312 365.283 314.19 364.181 312.474 364.102C306.166 363.813 299.79 363.532 293.536 364.174C290.356 364.501 286.371 366.027 284.55 368.395C281.925 371.81 280.938 376.484 279.253 380.621C278.574 381.744 276.814 381.957 275.054 381.963C265.101 381.996 266.208 382.498 265.879 373.228C265.793 370.8 263.946 368.435 262.979 365.983C262.979 365.983 262.953 366.069 262.695 365.331C261.19 364.879 259.696 364.084 258.179 364.037C252.86 363.875 247.526 364.141 242.212 363.921C236.462 363.683 232.072 365.971 229.28 370.783C226.839 374.991 225.262 373.861 222.81 370.809C220.971 368.52 218.347 366.86 215.605 364.597C214.783 365.166 213.961 365.734 213.078 366.662C212.951 366.901 212.753 367.022 211.939 367.373C211.651 367.93 211.364 368.487 211.051 368.979C211.051 368.979 211.117 368.956 210.683 369.43C210.474 369.802 210.265 370.175 210.105 371.012C209.811 371.348 209.518 371.683 209.038 371.565C208.609 371.307 208.181 371.05 207.752 370.793C207.843 371.188 207.934 371.584 208.028 372.638C208.032 373.077 208.036 373.516 208.044 373.97C208.044 373.97 208.029 373.975 207.646 374.315C207.467 374.605 207.287 374.895 207.099 375.012C207.099 375.012 207.273 375.006 206.795 375.383C206.553 375.924 206.31 376.465 206.035 376.969C206.035 376.969 206.085 376.975 205.686 377.324C205.505 377.627 205.324 377.93 205.129 378.04C205.129 378.04 205.322 378.033 204.829 378.402C204.579 378.946 204.329 379.491 204.05 379.978C204.05 379.978 204.115 379.969 203.716 380.336C203.535 380.649 203.355 380.962 203.169 381.066C203.169 381.066 203.378 381.068 202.864 381.428C202.613 381.982 202.362 382.536 202.075 383.001C202.075 383.001 202.165 382.967 201.767 383.358C201.594 383.687 201.421 384.015 201.296 384.266C201.296 384.266 201.364 384.327 200.614 384.144C199.087 383.407 197.561 382.67 196.037 381.26C196.023 380.811 196.009 380.361 196.035 379.96C196.035 379.96 195.973 379.958 196.373 379.659C196.627 379.44 196.846 379.19 197.042 378.966C197.042 378.966 196.986 378.955 197.384 378.618ZM237.599 115.211C235.798 115.022 233.987 114.601 232.199 114.686C224.741 115.039 217.289 115.544 208.998 116.032C203.951 116.693 198.885 117.235 193.86 118.038C176.196 120.861 159.127 125.695 144.557 136.426C136.346 142.473 130.86 150.338 130.969 161.755C131.365 203.08 131.499 244.416 130.908 285.736C130.721 298.869 137.412 307.109 146.814 313.628C164.843 326.128 185.803 331.202 207.181 332.625C223.221 333.693 239.531 334.227 255.642 330.978C270.273 328.027 284.668 324.615 297.655 316.951C307.588 311.09 316.859 304.547 319.831 291.514C319.994 290.205 320.299 288.897 320.3 287.589C320.325 245.327 320.339 203.065 320.263 160.803C320.26 158.769 319.421 156.737 318.612 154.103C315.272 143.032 306.96 136.383 297.404 131.263C278.938 121.37 258.782 117.574 237.599 115.211Z" fill="#ED1B24"/>
<path d="M319.128 292.031C316.859 304.547 307.588 311.09 297.655 316.951C284.668 324.615 270.273 328.027 255.642 330.978C239.531 334.227 223.22 333.693 207.181 332.625C185.803 331.202 164.843 326.128 146.814 313.628C137.412 307.109 130.721 298.869 130.908 285.736C131.499 244.416 131.365 203.08 130.969 161.755C130.86 150.339 136.346 142.473 144.557 136.426C159.127 125.695 176.196 120.861 193.86 118.038C198.885 117.235 203.951 116.693 209.894 116.095C219.903 116.072 229.015 115.986 238.128 115.9C258.782 117.574 278.938 121.37 297.404 131.263C306.96 136.383 315.272 143.032 318.744 154.892C318.939 158.676 319.055 161.671 319.057 164.667C319.09 207.121 319.107 249.576 319.128 292.031ZM144.988 291.49C148.057 295.032 150.578 299.346 154.29 301.984C170.952 313.824 190.238 317.67 210.892 319.471C220.86 319.355 230.828 319.239 241.711 319.061C247.493 318.049 253.245 316.785 259.063 316.077C272.542 314.438 284.988 309.949 295.811 301.884C299.949 298.801 304.654 294.287 305.651 289.679C307.283 282.138 306.093 273.987 306.093 265.44C285.918 278.421 264.522 284.858 240.477 285.783C231.985 285.84 223.492 285.861 215.001 285.991C213.614 286.013 212.235 286.517 210.04 286.865C209.298 286.546 208.584 286.075 207.809 285.932C196.846 283.915 185.784 282.338 174.932 279.848C164.169 277.379 154.226 272.735 144.806 265.581C144.829 273.969 144.853 282.357 144.988 291.49ZM145.505 256.935C146.751 258.001 147.943 259.138 149.252 260.121C168.127 274.297 190.471 277.688 212.975 279.747C223.125 280.676 233.521 279.768 243.74 278.917C264.272 277.209 283.85 272.247 301.006 260.066C304.215 257.788 306.525 255.436 306.293 250.925C305.91 243.451 306.209 235.942 306.168 228.449C306.162 227.266 305.883 226.084 305.783 225.317C298.389 228.945 291.535 232.899 284.249 235.753C271.004 240.941 257.24 244.467 242.928 244.805C229.275 245.128 215.504 245.975 201.982 244.623C190.373 243.463 178.782 240.291 167.677 236.547C159.929 233.936 153.014 228.855 145.245 224.428C144.847 225.818 144.132 227.201 144.105 228.597C143.982 235.019 143.953 241.446 144.096 247.867C144.161 250.756 144.71 253.634 145.505 256.935ZM145.944 183.663C145.317 184.321 144.174 184.958 144.147 185.64C143.977 189.917 143.95 194.207 144.078 198.487C144.243 204.017 144.598 209.542 145.179 215.68C150.447 219.277 155.377 223.564 161.047 226.339C176.503 233.901 193.263 237.475 210.226 238.736C228.204 240.072 246.278 239.1 263.976 234.933C277.3 231.795 290.015 227.101 301.189 218.965C303.108 217.567 305.839 215.524 305.927 213.67C306.4 203.823 306.15 193.941 306.15 184.605C252.349 210.543 199.249 213.384 145.944 183.663ZM235.262 128.926C221.424 128.538 207.722 129.318 194.03 131.823C180.47 134.304 167.325 137.742 155.672 145.192C150.556 148.463 144.855 152.07 144.852 159.472C144.848 166.807 150.276 170.497 155.399 174.067C171.953 185.603 191.288 189.012 210.62 190.665C231.539 192.452 252.496 190.93 272.754 184.22C283.168 180.771 292.999 176.565 301.039 168.689C308.36 161.516 307.253 155.437 299.839 149.277C287.533 139.052 272.451 134.701 256.948 131.947C250.075 130.726 243.124 129.941 235.262 128.926Z" fill="#FAFBFC"/>
<path d="M216.073 364.919C218.347 366.86 220.971 368.52 222.81 370.809C225.262 373.861 226.839 374.991 229.281 370.783C232.072 365.971 236.462 363.683 242.212 363.921C247.527 364.141 252.86 363.875 258.179 364.037C259.696 364.084 261.19 364.879 262.392 365.691C259.744 365.653 258.833 366.537 258.902 369.002C259.05 374.329 259.023 379.665 258.915 384.994C258.859 387.755 259.954 388.938 262.735 388.889C267.899 388.799 273.077 389.067 278.222 388.748C279.883 388.645 281.459 387.17 283.074 386.323C282.892 385.824 282.711 385.324 282.53 384.825C276.293 384.825 270.057 384.825 262.909 384.825C262.909 378.249 262.909 372.145 262.909 366.041C263.946 368.435 265.793 370.8 265.879 373.228C266.208 382.498 265.101 381.996 275.054 381.963C276.814 381.957 278.574 381.744 279.253 380.621C280.939 376.484 281.925 371.81 284.55 368.395C286.371 366.027 290.356 364.501 293.536 364.174C299.791 363.532 306.166 363.813 312.474 364.102C314.19 364.181 316.312 365.283 317.359 366.614C318.067 367.514 317.783 370.43 316.939 371.028C315.655 371.939 313.332 372.182 311.753 371.705C308.878 370.837 308.102 372.01 307.356 374.846C302.179 375.265 297.508 375.387 292.852 375.187C291.592 375.133 290.374 374.104 289.136 373.522C290.235 372.478 291.238 370.686 292.451 370.53C296.225 370.044 300.107 370.417 303.889 369.971C305.736 369.753 307.455 368.457 309.232 367.649C309.047 367.101 308.862 366.552 308.678 366.003C303.74 366.003 298.8 365.892 293.866 366.03C287.538 366.208 282.768 370.989 282.585 377.099C282.397 383.373 287.164 388.573 293.71 388.842C298.362 389.033 303.032 388.778 307.694 388.723C306.944 389.442 306.308 390.472 305.414 390.799C304.383 391.177 303.117 391.042 301.968 390.945C295.729 390.421 289.494 389.404 283.258 389.401C277.105 389.398 270.954 390.829 264.797 390.866C254.771 390.925 244.74 390.389 234.713 390.044C231.972 389.949 229.237 389.641 226.831 389.106C228.385 388.781 229.609 388.781 232.119 388.781C226.306 380.491 221.166 373.16 216.037 365.602C216.047 365.375 216.073 364.919 216.073 364.919ZM229.599 375.92C229.676 384.509 233.888 388.773 242.434 388.872C245.594 388.909 248.795 389.172 251.898 388.751C253.432 388.543 254.787 387.017 256.224 386.088C255.985 385.668 255.746 385.248 255.508 384.828C250.861 384.828 246.209 384.98 241.571 384.786C236.823 384.587 233.877 381.526 233.939 377.3C234.001 373.06 236.957 370.267 241.807 370.07C244.963 369.941 248.165 370.326 251.273 369.918C252.964 369.696 254.5 368.297 256.901 367C255.269 366.293 254.992 366.071 254.713 366.068C250.555 366.03 246.397 365.981 242.239 366.014C235.392 366.069 232.01 368.576 229.599 375.92ZM245.78 371.972C243.977 372.217 241.84 371.943 240.456 372.837C238.716 373.959 236.55 376.019 236.521 377.708C236.495 379.154 239.003 381.463 240.781 381.945C244.081 382.838 247.663 382.718 251.133 382.942C255.586 383.229 256.829 380.494 257.028 376.673C257.255 372.32 254.55 371.81 251.194 371.96C249.698 372.026 248.198 371.971 245.78 371.972Z" fill="#DC1A1D"/>
<path d="M307.706 388.745C303.032 388.778 298.362 389.033 293.71 388.842C287.164 388.573 282.397 383.373 282.585 377.1C282.768 370.989 287.538 366.208 293.866 366.031C298.8 365.892 303.74 366.003 308.677 366.003C308.862 366.552 309.047 367.101 309.232 367.65C307.455 368.457 305.736 369.753 303.889 369.971C300.107 370.417 296.225 370.045 292.451 370.53C291.238 370.687 290.235 372.478 289.136 373.522C290.374 374.104 291.592 375.133 292.852 375.187C297.508 375.387 302.179 375.265 307.291 375.227C307.738 375.189 307.77 375.117 307.755 375.458C307.4 376.769 307.059 377.739 306.718 378.71C306.718 378.71 306.882 378.831 306.485 378.929C304.287 379.554 302.507 380.426 300.681 380.538C296.859 380.774 293.012 380.61 289.176 380.61C289.033 381.262 288.89 381.914 288.747 382.566C290.977 383.313 293.169 384.53 295.444 384.709C300.027 385.072 304.655 384.87 309.265 384.901C309.3 385.072 309.336 385.243 309.202 385.928C308.596 387.201 308.159 387.96 307.722 388.718C307.722 388.718 307.717 388.768 307.706 388.745Z" fill="#F9DEDE"/>
<path d="M174.93 389.748C174.072 389.67 173.214 389.592 172.208 388.775C172.11 380.707 172.16 373.379 172.668 366.043C177.285 366.032 181.468 365.756 185.597 366.106C189.288 366.419 192.92 367.423 196.698 368.399C197.217 369.117 197.614 369.558 198.012 369.999C198.012 369.999 198.044 369.972 198.069 370.313C198.391 370.969 198.688 371.284 198.985 371.599C198.985 371.599 198.795 371.569 198.763 372.082C198.725 373.695 198.719 374.794 198.712 375.893C198.712 375.893 198.872 375.87 198.61 375.999C198.177 376.734 198.006 377.341 197.835 377.947C197.835 377.947 198.006 377.952 197.745 377.968C197.317 378.308 197.152 378.631 196.986 378.955C196.986 378.955 197.043 378.966 196.792 379.036C196.353 379.39 196.163 379.674 195.973 379.958C195.973 379.958 196.035 379.959 195.678 380.037C193.654 380.938 191.987 381.762 189.953 382.766C191.539 383.787 192.725 384.551 194.027 385.556C194.708 386.212 195.274 386.626 195.937 387.317C196.323 388.286 196.61 388.981 196.897 389.675C195.58 389.72 194.262 389.764 192.4 389.469C189.654 387.64 187.453 386.151 185.251 384.661C185.251 384.661 185.213 384.833 185.198 384.545C184.835 384.052 184.487 383.847 184.139 383.642C183.734 383.149 183.329 382.656 182.678 382.067C182.431 381.97 182.353 381.953 182.251 381.704C181.618 380.806 181.087 380.157 180.548 379.475C180.539 379.44 180.47 379.424 180.358 379.037C182.248 378.307 184.259 378.01 186.249 377.61C188.562 377.146 190.858 376.592 193.1 376.022C193.04 375.966 193.159 376.079 193.492 375.855C194.964 372.973 194.249 370.512 191.464 370.246C186.456 369.767 181.369 370.111 175.84 370.111C175.84 376.849 175.84 382.823 175.616 388.873C175.104 389.139 174.951 389.405 174.93 389.748Z" fill="#FCECEC"/>
<path d="M216.026 365.83C221.166 373.16 226.306 380.491 232.119 388.781C229.609 388.781 228.385 388.781 226.785 388.742C226.409 388.703 226.382 388.747 226.242 388.362C225.115 385.096 222.895 384.884 220.21 384.706C216.926 384.488 213.695 383.474 210.411 382.508C210.303 381.825 210.226 381.438 210.592 381.004C214.209 380.956 217.384 380.956 221.485 380.956C219.098 377.022 217.415 374.249 215.208 370.613C213.144 374.397 211.445 377.513 209.474 380.758C208.806 381.571 208.409 382.255 208.026 382.952C208.039 382.964 208.011 382.942 207.768 383.113C207.276 383.815 207.029 384.348 206.528 385.065C205.163 386.741 204.051 388.232 202.94 389.723C201.953 389.719 200.967 389.715 199.672 389.323C199.282 388.276 199.201 387.617 199.273 386.707C200.072 385.747 200.718 385.037 201.364 384.327C201.364 384.327 201.297 384.266 201.542 384.168C201.913 383.702 202.039 383.335 202.165 382.967C202.165 382.967 202.075 383.001 202.356 382.88C202.884 382.195 203.131 381.632 203.378 381.068C203.378 381.068 203.169 381.066 203.438 381.047C203.843 380.675 203.979 380.322 204.115 379.969C204.115 379.969 204.05 379.978 204.323 379.842C204.838 379.148 205.08 378.59 205.322 378.033C205.322 378.033 205.13 378.04 205.4 378.023C205.808 377.662 205.946 377.319 206.085 376.975C206.085 376.975 206.035 376.969 206.305 376.82C206.808 376.116 207.04 375.561 207.273 375.006C207.273 375.006 207.099 375.012 207.361 374.993C207.759 374.641 207.894 374.308 208.029 373.975C208.029 373.975 208.045 373.97 208.281 373.801C208.735 373.108 208.952 372.585 209.181 372.049C209.193 372.037 209.224 372.018 209.224 372.018C209.518 371.683 209.812 371.348 210.369 370.602C210.794 369.78 210.956 369.368 211.117 368.956C211.117 368.956 211.051 368.979 211.325 368.835C211.893 368.136 212.188 367.58 212.482 367.025C212.753 367.022 212.951 366.901 213.466 366.402C214.578 366.038 215.302 365.934 216.026 365.83Z" fill="#FAE7E6"/>
<path d="M172.21 366.051C172.16 373.379 172.11 380.708 172.024 388.504C169.606 387.378 167.747 387.926 164.923 388.961C155.673 392.353 145.851 392.921 136.981 387.961C129.081 383.544 130.164 368.691 139.068 365.949C146.045 363.8 154.151 365.319 161.86 365.636C161.965 366.065 161.817 366.23 161.363 366.201C155.751 366.106 150.591 365.905 145.437 366.007C138.745 366.14 133.962 370.93 133.913 377.262C133.863 383.623 138.584 388.517 145.202 388.778C149.026 388.928 152.859 388.874 156.687 388.836C165.769 388.747 170.269 383.667 169.764 374.129C170.381 371.186 170.709 368.573 171.037 365.96C171.037 365.96 171.039 365.966 171.331 365.983C171.818 366.017 172.014 366.034 172.21 366.051Z" fill="#D91C1F"/>
<path d="M319.48 291.772C319.107 249.576 319.09 207.122 319.057 164.667C319.055 161.671 318.939 158.676 318.924 155.192C319.421 156.737 320.26 158.769 320.263 160.803C320.339 203.065 320.325 245.327 320.3 287.589C320.299 288.897 319.995 290.205 319.48 291.772Z" fill="#87ABC0"/>
<path d="M182.353 381.953C182.353 381.953 182.431 381.97 182.44 382.009C180.822 384.172 179.194 386.297 177.29 388.679C177.013 388.938 176.99 388.914 177.008 388.451C177.037 385.672 177.007 383.354 177.063 381.039C177.333 369.825 174.74 370.991 188.012 370.956C191.473 370.947 193.278 372.528 193.159 376.079C193.159 376.079 193.04 375.966 192.629 376.039C188.57 376.161 184.914 376.099 181.278 376.337C180.382 376.395 179.549 377.426 178.687 378.01C179.282 378.482 179.876 378.953 180.47 379.424C180.47 379.424 180.539 379.44 180.64 379.873C181.278 380.855 181.815 381.404 182.353 381.953Z" fill="#E81016"/>
<path d="M309.368 384.638C304.655 384.87 300.027 385.072 295.444 384.709C293.169 384.53 290.976 383.313 288.747 382.566C288.89 381.914 289.033 381.262 289.176 380.61C293.012 380.61 296.859 380.774 300.681 380.538C302.507 380.426 304.287 379.554 306.421 378.85C307.659 380.574 308.565 382.475 309.368 384.638Z" fill="#DC1A1D"/>
<path d="M172.668 366.043C172.014 366.034 171.818 366.017 171.328 365.982C171.934 365.086 172.842 363.443 173.734 363.452C180.79 363.521 187.851 363.783 194.885 364.325C195.955 364.407 196.89 366.241 197.598 367.648C197.065 368.061 196.822 368.091 196.578 368.121C192.92 367.423 189.288 366.419 185.597 366.106C181.468 365.757 177.285 366.032 172.668 366.043Z" fill="#E31519"/>
<path d="M203.167 389.929C204.051 388.232 205.163 386.741 206.771 384.892C207.516 384.003 207.764 383.473 208.011 382.942C208.011 382.942 208.039 382.964 208.431 382.94C209.362 382.878 209.902 382.841 210.441 382.804C213.695 383.474 216.926 384.488 220.21 384.706C222.895 384.884 225.115 385.096 226.24 388.337C223.516 388.119 220.62 387.671 217.797 386.937C212.412 385.536 207.703 386.852 203.167 389.929Z" fill="#DC1A1D"/>
<path d="M237.863 115.555C229.016 115.986 219.903 116.072 210.313 116.076C217.289 115.544 224.741 115.039 232.199 114.686C233.987 114.602 235.798 115.022 237.863 115.555Z" fill="#6D99B3"/>
<path d="M200.989 384.236C200.718 385.037 200.072 385.747 198.863 386.715C197.48 386.996 196.66 387.019 195.839 387.041C195.274 386.626 194.709 386.212 194.067 385.192C194.672 383.702 195.353 382.818 196.034 381.933C197.561 382.67 199.088 383.407 200.989 384.236Z" fill="#E31519"/>
<path d="M170.676 366.029C170.709 368.573 170.381 371.186 169.746 374.089C169.437 374.38 169.513 374.331 169.513 374.075C169.364 373.519 169.214 373.218 168.962 372.841C168.86 372.766 168.99 372.547 168.881 372.257C168.53 371.638 168.289 371.308 168.038 370.975C168.028 370.972 168.032 370.952 167.964 370.665C167.482 369.984 167.067 369.59 166.731 369.19C166.808 369.183 166.807 369.339 166.674 369.099C166.236 368.665 165.932 368.47 165.607 368.288C165.586 368.301 165.544 368.277 165.672 367.955C165.871 367.411 165.941 367.191 166.011 366.97C167.446 366.679 168.881 366.388 170.676 366.029Z" fill="#E31519"/>
<path d="M185.264 385.02C187.453 386.151 189.654 387.64 192.005 389.44C187.954 391.295 186.652 388.279 185.264 385.02Z" fill="#DC1A1D"/>
<path d="M196.035 381.597C195.353 382.818 194.672 383.702 193.951 384.951C192.725 384.551 191.539 383.787 189.953 382.766C191.987 381.762 193.654 380.939 195.658 380.014C196.009 380.361 196.023 380.811 196.035 381.597Z" fill="#DC1A1D"/>
<path d="M195.937 387.317C196.659 387.019 197.48 386.997 198.71 386.966C199.201 387.617 199.282 388.276 199.305 389.266C198.601 389.753 197.954 389.91 197.102 389.871C196.61 388.981 196.323 388.286 195.937 387.317Z" fill="#DC1A1D"/>
<path d="M307.072 378.71C307.059 377.739 307.4 376.769 307.729 375.486C308.36 375.691 309.003 376.208 309.646 376.726C308.906 377.387 308.166 378.048 307.072 378.71Z" fill="#DC1A1D"/>
<path d="M308.036 388.726C308.159 387.96 308.596 387.201 309.242 386.187C309.085 386.865 308.718 387.799 308.036 388.726Z" fill="#DC1A1D"/>
<path d="M216.036 365.602C215.302 365.934 214.578 366.038 213.496 366.222C213.961 365.734 214.783 365.166 215.839 364.758C216.073 364.919 216.047 365.375 216.036 365.602Z" fill="#E31519"/>
<path d="M175.119 389.926C174.951 389.405 175.104 389.139 175.901 388.921C176.604 388.899 176.797 388.907 176.99 388.914C176.99 388.914 177.013 388.938 177.024 388.95C176.459 389.342 175.884 389.723 175.119 389.926Z" fill="#E81016"/>
<path d="M198.98 375.671C198.719 374.794 198.725 373.695 198.746 372.177C198.922 372.989 199.085 374.219 198.98 375.671Z" fill="#DC1A1D"/>
<path d="M208.025 371.979C207.934 371.584 207.843 371.188 207.752 370.793C208.181 371.05 208.61 371.307 209.131 371.791C209.224 372.018 209.193 372.037 208.896 372.017C208.407 371.991 208.216 371.985 208.025 371.979Z" fill="#E31519"/>
<path d="M205.075 378.217C205.08 378.59 204.837 379.148 204.337 379.871C204.329 379.491 204.579 378.946 205.075 378.217Z" fill="#D91C1F"/>
<path d="M203.121 381.248C203.131 381.632 202.884 382.195 202.374 382.924C202.362 382.536 202.613 381.982 203.121 381.248Z" fill="#D91C1F"/>
<path d="M208.026 372.308C208.216 371.985 208.407 371.991 208.884 372.029C208.952 372.585 208.735 373.108 208.279 373.793C208.036 373.516 208.032 373.077 208.026 372.308Z" fill="#D91C1F"/>
<path d="M196.698 368.399C196.822 368.091 197.066 368.061 197.677 368.001C198.041 368.422 198.037 368.873 198.023 369.661C197.615 369.558 197.217 369.117 196.698 368.399Z" fill="#DC1A1D"/>
<path d="M198.067 377.727C198.006 377.341 198.177 376.734 198.589 375.921C198.653 376.312 198.476 376.91 198.067 377.727Z" fill="#DC1A1D"/>
<path d="M212.21 367.199C212.188 367.58 211.893 368.136 211.337 368.868C211.364 368.487 211.651 367.93 212.21 367.199Z" fill="#D91C1F"/>
<path d="M207.034 375.195C207.04 375.561 206.808 376.116 206.321 376.839C206.31 376.466 206.553 375.924 207.034 375.195Z" fill="#D91C1F"/>
<path d="M165.679 366.962C165.941 367.191 165.871 367.411 165.422 367.884C164.663 367.8 164.283 367.463 163.935 367.083C163.965 367.039 164.02 366.948 164.02 366.948C164.462 366.95 164.905 366.952 165.679 366.962Z" fill="#D91C1F"/>
<path d="M162.041 365.983C162.627 366.111 163.138 366.321 163.834 366.739C164.019 366.947 163.965 367.039 163.643 367.052C162.819 366.787 162.318 366.508 161.817 366.23C161.817 366.23 161.965 366.065 162.041 365.983Z" fill="#D91C1F"/>
<path d="M198.855 371.308C198.688 371.284 198.391 370.969 198.048 370.313C198.244 370.32 198.485 370.669 198.855 371.308Z" fill="#DC1A1D"/>
<path d="M184.306 383.882C184.487 383.847 184.835 384.052 185.286 384.553C185.083 384.606 184.778 384.364 184.306 383.882Z" fill="#DC1A1D"/>
<path d="M201.966 383.163C202.039 383.335 201.913 383.702 201.517 384.207C201.421 384.015 201.594 383.687 201.966 383.163Z" fill="#D91C1F"/>
<path d="M210.9 369.193C210.956 369.368 210.794 369.78 210.344 370.37C210.265 370.175 210.474 369.802 210.9 369.193Z" fill="#D91C1F"/>
<path d="M203.915 380.153C203.979 380.322 203.843 380.675 203.441 381.152C203.355 380.962 203.535 380.649 203.915 380.153Z" fill="#D91C1F"/>
<path d="M196.173 379.809C196.163 379.674 196.352 379.39 196.786 379.008C196.846 379.19 196.627 379.44 196.173 379.809Z" fill="#DC1A1D"/>
<path d="M197.185 378.786C197.152 378.631 197.318 378.308 197.745 377.883C197.799 378.06 197.592 378.339 197.185 378.786Z" fill="#DC1A1D"/>
<path d="M205.885 377.15C205.946 377.319 205.808 377.662 205.406 378.119C205.324 377.93 205.505 377.627 205.885 377.15Z" fill="#D91C1F"/>
<path d="M207.838 374.145C207.894 374.308 207.759 374.641 207.366 375.079C207.288 374.895 207.467 374.605 207.838 374.145Z" fill="#D91C1F"/>
<path d="M235.735 128.942C243.124 129.941 250.075 130.726 256.948 131.947C272.451 134.701 287.534 139.052 299.839 149.276C307.253 155.437 308.36 161.516 301.039 168.688C292.999 176.565 283.168 180.771 272.754 184.22C252.497 190.93 231.539 192.452 210.621 190.665C191.288 189.012 171.953 185.603 155.399 174.066C150.276 170.497 144.848 166.807 144.852 159.472C144.855 152.07 150.557 148.463 155.673 145.192C167.325 137.742 180.47 134.304 194.03 131.823C207.722 129.318 221.424 128.538 235.735 128.942Z" fill="#ED1B24"/>
<path d="M146.072 184.485C199.25 213.384 252.349 210.543 306.15 184.605C306.15 193.941 306.4 203.823 305.928 213.67C305.839 215.524 303.108 217.567 301.19 218.965C290.015 227.101 277.3 231.795 263.976 234.933C246.278 239.1 228.204 240.072 210.226 238.736C193.263 237.475 176.503 233.901 161.048 226.339C155.377 223.564 150.447 219.277 145.094 214.903C145.018 205.736 144.978 197.346 145.084 188.958C145.102 187.463 145.727 185.976 146.072 184.485ZM284.989 214.448C293.881 211.158 294.132 210.801 292.148 203.692C289.354 205.005 286.72 206.858 283.823 207.468C278.636 208.561 278.334 211.567 279.655 216.075C281.231 215.662 282.765 215.26 284.989 214.448Z" fill="#EC1B24"/>
<path d="M145.727 224.877C153.014 228.855 159.929 233.936 167.677 236.547C178.782 240.291 190.373 243.463 201.982 244.623C215.504 245.975 229.275 245.128 242.928 244.805C257.24 244.467 271.004 240.941 284.249 235.753C291.535 232.899 298.389 228.945 305.783 225.317C305.883 226.084 306.162 227.266 306.168 228.449C306.209 235.942 305.91 243.451 306.293 250.925C306.525 255.436 304.215 257.788 301.006 260.066C283.85 272.247 264.272 277.209 243.74 278.917C233.521 279.768 223.125 280.676 212.975 279.747C190.471 277.688 168.127 274.297 149.252 260.121C147.943 259.138 146.751 258 145.358 256.224C145.383 245.302 145.555 235.09 145.727 224.877ZM281.971 256.416C283.834 255.831 285.711 255.284 287.558 254.653C292.239 253.054 294.614 250.24 292.298 244.696C288.484 246.353 284.535 247.744 280.92 249.74C278.04 251.331 278.404 255.181 281.971 256.416Z" fill="#ED1B24"/>
<path d="M241.468 285.938C264.523 284.858 285.918 278.421 306.093 265.44C306.093 273.987 307.283 282.138 305.652 289.679C304.654 294.287 299.949 298.801 295.811 301.884C284.988 309.949 272.542 314.438 259.064 316.077C253.245 316.785 247.493 318.049 240.817 319.018C230.008 319.027 220.094 319.077 210.18 319.128C190.238 317.67 170.952 313.824 154.29 301.984C150.578 299.346 148.057 295.032 145.004 290.676C145.179 281.835 145.338 273.808 145.497 265.781C154.226 272.735 164.169 277.379 174.932 279.848C185.785 282.338 196.846 283.915 207.809 285.932C208.584 286.075 209.298 286.546 210.925 286.894C218.525 287.049 225.242 287.334 231.954 287.231C235.131 287.183 238.297 286.392 241.468 285.938ZM286.368 288.905C278.155 292.259 277.561 293.219 280.471 298.824C284.815 294.926 295.753 297.426 292.459 285.814C290.451 286.792 288.736 287.626 286.368 288.905Z" fill="#EC1B24"/>
<path d="M146.008 184.074C145.727 185.976 145.102 187.463 145.084 188.958C144.978 197.346 145.018 205.736 144.94 214.598C144.598 209.542 144.243 204.017 144.078 198.487C143.95 194.207 143.977 189.917 144.147 185.64C144.174 184.958 145.317 184.321 146.008 184.074Z" fill="#7DA4BC"/>
<path d="M145.486 224.653C145.555 235.09 145.383 245.302 145.125 256.015C144.711 253.634 144.161 250.756 144.097 247.866C143.953 241.446 143.983 235.019 144.106 228.597C144.132 227.201 144.847 225.817 145.486 224.653Z" fill="#7DA4BC"/>
<path d="M210.536 319.299C220.094 319.077 230.008 319.027 240.359 319.05C230.828 319.239 220.86 319.355 210.536 319.299Z" fill="#6D99B3"/>
<path d="M240.973 285.861C238.297 286.392 235.131 287.183 231.954 287.231C225.242 287.334 218.525 287.049 211.331 286.861C212.235 286.517 213.614 286.013 215.001 285.991C223.492 285.861 231.985 285.84 240.973 285.861Z" fill="#6D99B3"/>
<path d="M145.151 265.681C145.338 273.808 145.179 281.835 144.948 290.303C144.853 282.357 144.829 273.969 145.151 265.681Z" fill="#7DA4BC"/>
<path d="M229.675 375.547C232.01 368.576 235.391 366.069 242.239 366.015C246.397 365.981 250.555 366.03 254.713 366.068C254.992 366.071 255.269 366.293 256.9 367C254.5 368.297 252.964 369.696 251.272 369.918C248.165 370.326 244.963 369.941 241.807 370.07C236.957 370.267 234.001 373.06 233.939 377.3C233.877 381.526 236.823 384.587 241.57 384.786C246.209 384.98 250.861 384.828 255.508 384.828C255.746 385.248 255.985 385.668 256.223 386.088C254.787 387.018 253.432 388.543 251.898 388.751C248.794 389.172 245.594 388.909 242.434 388.872C233.888 388.773 229.676 384.509 229.675 375.547Z" fill="#FBEAE9"/>
<path d="M246.24 371.971C248.198 371.971 249.698 372.026 251.194 371.96C254.55 371.81 257.255 372.32 257.028 376.673C256.828 380.494 255.586 383.229 251.132 382.942C247.663 382.718 244.081 382.838 240.781 381.945C239.003 381.463 236.495 379.154 236.52 377.708C236.55 376.019 238.716 373.959 240.456 372.837C241.84 371.943 243.977 372.217 246.24 371.971Z" fill="#ED1A22"/>
<path d="M262.944 366.012C262.908 372.145 262.908 378.249 262.908 384.825C270.057 384.825 276.293 384.825 282.529 384.825C282.711 385.324 282.892 385.824 283.074 386.323C281.459 387.17 279.883 388.645 278.222 388.748C273.077 389.067 267.898 388.799 262.735 388.889C259.953 388.938 258.859 387.755 258.915 384.994C259.023 379.665 259.05 374.329 258.902 369.002C258.833 366.537 259.744 365.653 262.521 366.061C262.953 366.069 262.979 365.983 262.944 366.012Z" fill="#FCEEEE"/>
<path d="M177.008 388.451C176.797 388.907 176.604 388.899 176.126 388.844C175.84 382.823 175.84 376.849 175.84 370.111C181.369 370.111 186.456 369.767 191.464 370.246C194.249 370.512 194.964 372.973 193.492 375.855C193.278 372.528 191.473 370.947 188.012 370.956C174.74 370.991 177.332 369.825 177.063 381.039C177.007 383.354 177.036 385.672 177.008 388.451Z" fill="#D33F41"/>
<path d="M180.358 379.037C179.876 378.953 179.281 378.482 178.687 378.01C179.549 377.426 180.382 376.395 181.278 376.337C184.914 376.099 188.57 376.161 192.69 376.095C190.858 376.592 188.562 377.146 186.249 377.611C184.258 378.01 182.248 378.307 180.358 379.037Z" fill="#D33F41"/>
<path d="M182.251 381.704C181.815 381.404 181.278 380.855 180.649 379.907C181.087 380.157 181.618 380.806 182.251 381.704Z" fill="#D33F41"/>
<path d="M209.746 380.629C211.445 377.513 213.144 374.397 215.208 370.613C217.415 374.249 219.098 377.022 221.485 380.956C217.384 380.956 214.209 380.956 210.489 380.9C209.943 380.845 209.746 380.629 209.746 380.629Z" fill="#D62425"/>
<path d="M210.411 382.508C209.902 382.841 209.362 382.878 208.418 382.927C208.409 382.255 208.806 381.571 209.474 380.758C209.746 380.629 209.943 380.845 210.046 380.948C210.226 381.438 210.303 381.826 210.411 382.508Z" fill="#D62425"/>
<path d="M207.768 383.113C207.764 383.473 207.516 384.003 207.025 384.707C207.029 384.348 207.276 383.816 207.768 383.113Z" fill="#D62425"/>
<path d="M161.363 366.201C162.318 366.508 162.819 366.787 163.612 367.095C164.283 367.463 164.663 367.8 165.294 368.207C165.544 368.277 165.587 368.301 165.724 368.544C166.177 368.971 166.492 369.155 166.807 369.339C166.807 369.339 166.809 369.183 166.82 369.466C167.232 370.151 167.632 370.551 168.032 370.952C168.032 370.952 168.028 370.972 168.09 371.291C168.431 371.923 168.71 372.235 168.99 372.546C168.99 372.546 168.86 372.766 168.951 373.1C169.199 373.733 169.356 374.032 169.513 374.331C169.513 374.331 169.438 374.38 169.456 374.42C170.269 383.667 165.769 388.747 156.687 388.836C152.859 388.874 149.026 388.928 145.202 388.778C138.584 388.517 133.863 383.623 133.913 377.261C133.962 370.93 138.745 366.14 145.437 366.007C150.591 365.905 155.751 366.106 161.363 366.201ZM139.695 381.733C143.539 384.967 158.06 386.532 161.762 383.383C163.667 381.764 165.435 378.012 164.83 375.933C164.142 373.572 160.993 370.982 158.445 370.332C154.71 369.379 150.555 369.964 146.584 370.069C139.71 370.251 137.061 374.301 139.695 381.733Z" fill="#FBEAE9"/>
<path d="M167.964 370.665C167.632 370.551 167.232 370.151 166.743 369.473C167.067 369.59 167.482 369.984 167.964 370.665Z" fill="#D91C1F"/>
<path d="M166.674 369.099C166.492 369.155 166.177 368.971 165.744 368.531C165.932 368.47 166.236 368.665 166.674 369.099Z" fill="#D91C1F"/>
<path d="M168.881 372.257C168.71 372.234 168.43 371.923 168.099 371.294C168.289 371.308 168.53 371.638 168.881 372.257Z" fill="#D91C1F"/>
<path d="M169.513 374.075C169.356 374.032 169.199 373.733 169.053 373.176C169.214 373.218 169.364 373.519 169.513 374.075Z" fill="#D91C1F"/>
<path d="M284.644 214.653C282.765 215.26 281.231 215.662 279.655 216.075C278.334 211.567 278.636 208.561 283.823 207.468C286.719 206.858 289.354 205.005 292.148 203.692C294.132 210.801 293.881 211.158 284.644 214.653Z" fill="#F0F5F7"/>
<path d="M281.609 256.604C278.404 255.181 278.04 251.331 280.921 249.741C284.535 247.745 288.484 246.353 292.298 244.696C294.614 250.24 292.24 253.054 287.559 254.653C285.711 255.284 283.834 255.831 281.609 256.604Z" fill="#F0F5F7"/>
<path d="M286.694 288.683C288.736 287.626 290.451 286.792 292.459 285.814C295.753 297.427 284.815 294.926 280.471 298.824C277.561 293.219 278.155 292.259 286.694 288.683Z" fill="#F0F5F7"/>
<path d="M139.473 381.414C137.061 374.301 139.71 370.251 146.584 370.069C150.555 369.964 154.71 369.379 158.445 370.332C160.993 370.982 164.142 373.572 164.83 375.933C165.435 378.012 163.667 381.764 161.762 383.383C158.059 386.532 143.539 384.967 139.473 381.414Z" fill="#E30C0D"/>
</svg>
