<?xml version="1.0" ?><svg viewBox="0 0 24 24" xmlns="http://www.w3.org/2000/svg"><title/><g data-name="briefcase office" id="briefcase_office"><path d="M20,5H17V4a3,3,0,0,0-3-3H10A3,3,0,0,0,7,4V5H4A3,3,0,0,0,1,8V20a3,3,0,0,0,3,3H20a3,3,0,0,0,3-3V8A3,3,0,0,0,20,5ZM9,4a1,1,0,0,1,1-1h4a1,1,0,0,1,1,1V5H9ZM3,8A1,1,0,0,1,4,7H20a1,1,0,0,1,1,1v3a1,1,0,0,1-1,1H4a1,1,0,0,1-1-1ZM20,21H4a1,1,0,0,1-1-1V13.82c.74.26,1.14.18,3,.18v1a1,1,0,0,0,2,0V14h8v1a1,1,0,0,0,2,0V14c2.1,0,2.33.06,3-.18V20A1,1,0,0,1,20,21Z"/></g></svg>