<svg width="240" height="240" viewBox="0 0 240 240" fill="none" xmlns="http://www.w3.org/2000/svg">
<g clip-path="url(#clip0_315_2)">
<path d="M136 241C126.312 241 116.625 241 106.261 240.645C91.6628 239.191 78.6087 234.796 66.3483 228.534C51.449 220.924 38.4983 210.661 27.8658 197.489C17.9652 185.224 10.4363 171.797 6.03772 156.691C4.05504 149.883 2.66107 142.902 1 136C1 126.312 1 116.625 1.35487 106.261C3.32093 90.2446 8.27339 76.0543 15.675 62.5277C23.0579 49.0355 32.7989 37.7302 44.5242 27.8841C56.6283 17.72 70.204 10.4378 85.3082 6.03801C92.1169 4.05468 99.0974 2.66114 106 1C115.688 1 125.375 1 135.739 1.35488C151.039 2.80499 164.622 7.64653 177.428 14.3163C192.309 22.0669 205.118 32.6595 215.462 45.9898C224.763 57.9758 232.16 70.9997 236.042 85.7944C237.802 92.5014 239.354 99.2631 241 106C241 115.688 241 125.375 240.645 135.739C240.17 138.233 240.257 140.094 239.898 141.863C234.033 170.797 220.524 195.208 197.47 214.107C183.3 225.724 167.455 233.8 149.638 238.009C145.109 239.079 140.547 240.007 136 241ZM177.957 182.618C190.775 172.577 189.848 155.335 175.904 146.845C172.237 144.611 168.208 142.973 164.355 141.043C161.689 139.707 158.4 138.902 156.57 136.822C154.896 134.918 153.811 131.396 154.349 129.012C154.738 127.29 158.411 124.931 160.267 125.209C164.011 125.771 167.516 127.934 172.46 129.997C174.596 128.608 178.398 126.137 182.192 123.67C174.503 111.653 159.411 107.963 147.875 114.916C142.566 118.115 139.438 122.778 138.762 129.013C137.584 139.888 142.22 147.388 153.644 152.917C158.12 155.083 163.026 156.616 166.992 159.471C169.074 160.97 170.903 165.016 170.365 167.337C169.835 169.627 166.444 172.118 163.832 172.876C158.886 174.311 154.32 172.508 150.905 168.445C149.538 166.817 148.27 165.105 146.791 163.219C142.791 165.892 138.997 168.428 135.26 170.924C143.529 186.412 160.75 191.152 177.957 182.618ZM127.174 144.5C127.174 133.718 127.174 122.936 127.174 112.047C121.765 112.047 116.89 112.047 111.69 112.047C111.69 114.373 111.691 116.35 111.689 118.327C111.68 132.657 111.758 146.987 111.599 161.315C111.559 164.914 111.48 168.956 107.052 170.437C102.666 171.904 98.8533 170.579 95.628 167.43C94.4704 166.3 93.4469 165.033 92.1856 163.632C88.1163 166.155 84.2365 168.561 78.8266 171.915C84.3935 176.564 88.513 181.371 93.7214 184.1C110.274 192.771 126.915 182.519 127.16 163.995C127.241 157.831 127.173 151.665 127.174 144.5ZM129.73 70.7512C127.9 64.0976 124.323 62.6683 114.277 64.5472C114.277 72.6058 114.277 80.65 114.277 88.7586C122.721 89.5576 116.553 81.8668 120.098 79.8091C124.66 81.0155 121.774 91.1243 130.203 88.2882C128.891 84.9697 127.629 81.7757 126.75 79.5513C127.968 76.3547 128.885 73.9469 129.73 70.7512ZM88.2644 82.1037C82.9329 75.3094 89.5013 70.1699 90.8622 64.4557C84.078 61.7118 84.6655 68.1985 82.3152 71.3168C79.7585 68.4464 80.4354 61.6781 72.798 64.8121C80.5209 72.4604 78.4774 80.5 73.1331 88.198C80.7685 91.3781 79.4382 83.6149 82.4343 81.3697C84.7658 84.4478 84.0181 90.9184 91.0998 88.268C90.2478 86.3579 89.4485 84.5656 88.2644 82.1037ZM57.2663 69.6829C57.2663 75.9391 57.2663 82.1953 57.2663 88.3437C68.9324 89.9198 71.4289 89.302 71.2298 84.9447C68.3812 84.7141 65.5028 84.481 62.6625 84.251C62.6625 81.9281 62.6625 80.1834 62.6625 78.4799C70.1792 77.537 70.1792 77.537 69.2542 74.0842C67.1226 73.9853 64.9909 73.8863 62.7577 73.7827C62.7577 71.8703 62.7577 70.1817 62.7577 68.5415C71.4836 67.5539 71.4836 67.5539 71.0817 64.175C66.6776 64.175 62.2569 64.175 57.5298 64.175C57.4343 65.8257 57.3504 67.2775 57.2663 69.6829ZM169.305 72.7967C171.968 74.8834 174.725 76.8647 177.247 79.1095C178.234 79.9877 178.95 81.3934 179.274 82.6879C179.414 83.2448 178.138 84.8079 177.69 84.7378C176.38 84.5333 175.134 83.7917 173.918 83.157C172.292 82.3087 170.716 81.3631 168.032 79.8441C168.571 82.3495 168.65 83.0134 168.857 83.6345C170.318 88.0137 173.729 89.2334 177.888 88.988C181.426 88.7792 183.884 87.0355 184.476 83.3689C185.167 79.0866 182.955 76.4764 179.254 74.7979C178.049 74.2516 176.508 73.8656 175.825 72.9053C175.055 71.8211 175.079 70.1725 174.757 68.7693C176.16 68.9081 177.645 68.8048 178.946 69.2455C180.658 69.8253 182.224 70.833 184.577 72.0228C183.329 65.3616 181.064 63.4657 176.051 63.7482C171.211 64.021 169.255 66.3503 169.305 72.7967ZM159.729 68.5349C160.97 71.3659 162.985 71.8487 165.718 70.6145C165.043 65.9478 162.375 63.7251 157.915 63.7064C153.988 63.6899 151.038 65.372 150.274 69.4438C149.442 73.8835 152.39 76.1044 155.851 77.8503C157.033 78.4466 158.792 78.7754 159.248 79.7253C159.89 81.0614 159.563 82.8626 159.65 84.4649C158.196 84.1602 156.612 84.1208 155.322 83.4846C153.664 82.6675 152.243 81.3712 149.73 79.5728C149.92 86.441 152.956 88.504 157.399 88.9659C161.27 89.3684 164.535 88.07 165.562 84.042C166.67 79.6926 164.554 76.6735 160.545 74.8966C159.484 74.4262 158.211 74.1228 157.462 73.3364C156.538 72.3666 156.061 70.9721 155.39 69.7612C156.592 69.2126 157.793 68.6641 159.729 68.5349ZM145.017 68.0929C145.88 67.0115 146.743 65.9301 148.011 64.341C142.098 64.341 137.697 64.341 133.383 64.341C133.383 72.6075 133.383 80.5027 133.383 88.3456C144.725 89.9147 147.12 89.3075 146.769 84.5914C144.062 84.5914 141.305 84.5914 138.364 84.5914C138.364 82.2085 138.364 80.3028 138.364 78.2047C141.027 78.0604 143.44 77.9298 145.977 77.7924C146.178 70.906 140.458 75.8023 138.424 73.2197C138.424 71.8251 138.424 70.1245 138.424 68.0966C140.549 68.0966 142.353 68.0966 145.017 68.0929ZM100.317 63.9828C98.3658 63.9828 96.4147 63.9828 94.2833 63.9828C94.2833 72.4317 94.2833 80.4685 94.2833 88.8267C95.9777 88.7134 97.3587 88.6212 99.0859 88.5057C99.0859 85.5525 99.0859 82.9486 99.0859 80.4015C107.794 79.4652 110.504 77.4027 110.443 72.0031C110.385 66.9214 107.388 64.3154 100.317 63.9828Z" fill="#F0C30F"/>
<path d="M177.629 182.796C160.75 191.152 143.529 186.412 135.26 170.924C138.997 168.428 142.791 165.892 146.791 163.219C148.27 165.105 149.538 166.817 150.905 168.445C154.32 172.508 158.886 174.311 163.832 172.876C166.444 172.118 169.835 169.627 170.365 167.337C170.903 165.016 169.074 160.97 166.992 159.471C163.026 156.616 158.12 155.083 153.644 152.917C142.22 147.388 137.584 139.888 138.762 129.013C139.438 122.778 142.566 118.115 147.875 114.916C159.411 107.963 174.503 111.653 182.192 123.67C178.398 126.137 174.596 128.608 172.46 129.997C167.516 127.935 164.011 125.771 160.267 125.209C158.411 124.931 154.738 127.29 154.349 129.012C153.811 131.396 154.896 134.918 156.57 136.822C158.4 138.902 161.689 139.707 164.355 141.043C168.208 142.973 172.237 144.611 175.904 146.845C189.848 155.335 190.775 172.577 177.629 182.796Z" fill="#040300"/>
<path d="M127.174 145C127.173 151.665 127.241 157.831 127.16 163.995C126.915 182.519 110.274 192.771 93.7214 184.1C88.513 181.371 84.3935 176.564 78.8267 171.915C84.2365 168.561 88.1164 166.155 92.1856 163.632C93.447 165.033 94.4704 166.3 95.628 167.43C98.8533 170.578 102.666 171.904 107.052 170.437C111.48 168.956 111.559 164.914 111.599 161.315C111.758 146.987 111.68 132.657 111.689 118.327C111.691 116.35 111.69 114.373 111.69 112.047C116.89 112.047 121.765 112.047 127.174 112.047C127.174 122.936 127.174 133.718 127.174 145Z" fill="#020100"/>
<path d="M129.766 71.1451C128.885 73.9469 127.968 76.3547 126.75 79.5513C127.629 81.7757 128.891 84.9697 130.203 88.2882C121.774 91.1243 124.659 81.0155 120.098 79.8091C116.553 81.8668 122.721 89.5576 114.277 88.7586C114.277 80.65 114.277 72.6058 114.277 64.5472C124.323 62.6683 127.9 64.0976 129.766 71.1451ZM123.9 74.4233C125.277 69.1146 124.254 67.8747 119.218 68.6857C119.218 70.9138 119.218 73.1291 119.218 75.7669C120.86 75.4363 122.104 75.1858 123.9 74.4233Z" fill="#0A0801"/>
<path d="M88.4568 82.4385C89.4485 84.5656 90.2479 86.3579 91.0999 88.268C84.0181 90.9184 84.7659 84.4478 82.4344 81.3698C79.4383 83.615 80.7686 91.3781 73.1332 88.198C78.4775 80.5 80.521 72.4605 72.7981 64.8121C80.4355 61.6781 79.7586 68.4465 82.3153 71.3168C84.6656 68.1985 84.0781 61.7119 90.8623 64.4558C89.5014 70.17 82.933 75.3094 88.4568 82.4385Z" fill="#0B0901"/>
<path d="M57.2664 69.2061C57.3504 67.2775 57.4344 65.8256 57.5298 64.175C62.2569 64.175 66.6776 64.175 71.0817 64.175C71.4836 67.5539 71.4836 67.5539 62.7578 68.5414C62.7578 70.1817 62.7578 71.8703 62.7578 73.7826C64.991 73.8863 67.1226 73.9852 69.2543 74.0882C70.1792 77.537 70.1792 77.537 62.6625 78.4799C62.6625 80.1834 62.6625 81.928 62.6625 84.251C65.5028 84.481 68.3812 84.714 71.2299 84.9447C71.4289 89.302 68.9325 89.9198 57.2664 88.3437C57.2664 82.1953 57.2664 75.9391 57.2664 69.2061Z" fill="#100D01"/>
<path d="M169.196 72.4189C169.255 66.3503 171.211 64.021 176.051 63.7482C181.064 63.4657 183.329 65.3616 184.577 72.0228C182.224 70.833 180.658 69.8253 178.946 69.2455C177.645 68.8048 176.16 68.9081 174.757 68.7693C175.079 70.1725 175.055 71.821 175.825 72.9053C176.507 73.8656 178.049 74.2516 179.253 74.7979C182.955 76.4764 185.167 79.0866 184.476 83.3689C183.884 87.0355 181.426 88.7792 177.888 88.988C173.729 89.2334 170.318 88.0137 168.857 83.6345C168.65 83.0134 168.57 82.3495 168.032 79.8441C170.716 81.3631 172.292 82.3087 173.918 83.157C175.134 83.7917 176.38 84.5333 177.689 84.7378C178.138 84.8079 179.414 83.2448 179.274 82.6878C178.95 81.3934 178.234 79.9877 177.247 79.1095C174.725 76.8647 171.968 74.8834 169.196 72.4189Z" fill="#0A0801"/>
<path d="M159.362 68.3252C157.793 68.6641 156.592 69.2127 155.39 69.7612C156.061 70.9722 156.538 72.3666 157.462 73.3364C158.211 74.1228 159.484 74.4262 160.545 74.8966C164.554 76.6735 166.67 79.6926 165.562 84.042C164.535 88.0701 161.27 89.3684 157.399 88.9659C152.956 88.504 149.92 86.441 149.729 79.5728C152.243 81.3712 153.664 82.6675 155.322 83.4847C156.612 84.1208 158.196 84.1603 159.65 84.4649C159.563 82.8626 159.89 81.0614 159.248 79.7253C158.792 78.7754 157.033 78.4466 155.851 77.8504C152.389 76.1044 149.442 73.8835 150.274 69.4438C151.038 65.372 153.988 63.6899 157.915 63.7064C162.374 63.7252 165.043 65.9478 165.718 70.6145C162.985 71.8487 160.97 71.366 159.362 68.3252Z" fill="#0A0801"/>
<path d="M144.587 68.0947C142.353 68.0966 140.549 68.0966 138.424 68.0966C138.424 70.1245 138.424 71.8251 138.424 73.2197C140.458 75.8023 146.178 70.906 145.977 77.7924C143.44 77.9298 141.027 78.0605 138.364 78.2047C138.364 80.3028 138.364 82.2085 138.364 84.5914C141.305 84.5914 144.062 84.5914 146.769 84.5914C147.12 89.3075 144.725 89.9148 133.384 88.3457C133.384 80.5027 133.384 72.6076 133.384 64.3411C137.697 64.3411 142.098 64.3411 148.011 64.3411C146.743 65.9301 145.88 67.0115 144.587 68.0947Z" fill="#080600"/>
<path d="M100.768 63.9834C107.388 64.3154 110.385 66.9214 110.443 72.0031C110.504 77.4027 107.794 79.4652 99.0858 80.4015C99.0858 82.9486 99.0858 85.5524 99.0858 88.5057C97.3586 88.6212 95.9776 88.7134 94.2832 88.8267C94.2832 80.4685 94.2832 72.4317 94.2832 63.9828C96.4147 63.9828 98.3657 63.9828 100.768 63.9834ZM98.9853 73.3257C98.7016 76.7268 101.388 76.507 102.838 75.6127C104.099 74.8348 105.444 72.0261 104.941 71.042C104.107 69.4127 101.817 68.5286 100.14 67.3305C99.7547 67.7353 99.369 68.1401 98.9833 68.5449C98.9833 69.8442 98.9833 71.1434 98.9853 73.3257Z" fill="#040300"/>
<path d="M123.624 74.6792C122.104 75.1857 120.86 75.4363 119.218 75.7669C119.218 73.1291 119.218 70.9137 119.218 68.6856C124.254 67.8747 125.277 69.1146 123.624 74.6792Z" fill="#DCB30E"/>
<path d="M98.9843 72.8842C98.9833 71.1434 98.9833 69.8442 98.9833 68.545C99.369 68.1402 99.7547 67.7354 100.14 67.3306C101.817 68.5286 104.107 69.4128 104.941 71.0421C105.444 72.0262 104.099 74.8348 102.838 75.6128C101.388 76.5071 98.7016 76.7268 98.9843 72.8842Z" fill="#E5BA0E"/>
</g>
<defs>
<clipPath id="clip0_315_2">
<rect width="240" height="240" fill="white"/>
</clipPath>
</defs>
</svg>
