<svg width="24" height="24" viewBox="0 0 24 24" fill="none" xmlns="http://www.w3.org/2000/svg">
<path d="M19.17 2H4.83C4.59075 1.99465 4.35285 2.03732 4.13037 2.12551C3.9079 2.21369 3.70537 2.3456 3.53475 2.51341C3.36414 2.68123 3.22891 2.88155 3.13706 3.10254C3.04521 3.32353 2.9986 3.56069 3 3.8V20.2C2.9986 20.4393 3.04521 20.6765 3.13706 20.8975C3.22891 21.1184 3.36414 21.3188 3.53475 21.4866C3.70537 21.6544 3.9079 21.7863 4.13037 21.8745C4.35285 21.9627 4.59075 22.0053 4.83 22H19.17C19.4089 22.004 19.6462 21.9604 19.868 21.8717C20.0899 21.783 20.2919 21.6511 20.4622 21.4835C20.6326 21.316 20.7678 21.1162 20.8602 20.8958C20.9525 20.6755 21 20.4389 21 20.2V3.8C21 3.56107 20.9525 3.32453 20.8602 3.10417C20.7678 2.8838 20.6326 2.68402 20.4622 2.51648C20.2919 2.34894 20.0899 2.21698 19.868 2.12831C19.6462 2.03963 19.4089 1.99602 19.17 2V2ZM20 20.2C20 20.3059 19.979 20.4108 19.9382 20.5085C19.8973 20.6062 19.8375 20.6948 19.7622 20.7692C19.6868 20.8437 19.5974 20.9024 19.4992 20.942C19.401 20.9816 19.2959 21.0013 19.19 21H4.83C4.72457 21.0013 4.61994 20.9816 4.52227 20.9418C4.4246 20.9021 4.33588 20.8432 4.26132 20.7687C4.18677 20.6941 4.12789 20.6054 4.08816 20.5077C4.04843 20.4101 4.02866 20.3054 4.03 20.2V3.8C4.02866 3.69457 4.04843 3.58994 4.08816 3.49227C4.12789 3.3946 4.18677 3.30588 4.26132 3.23132C4.33588 3.15676 4.4246 3.09789 4.52227 3.05816C4.61994 3.01843 4.72457 2.99865 4.83 3H19.17C19.2759 2.99867 19.381 3.01839 19.4792 3.058C19.5774 3.09761 19.6668 3.15633 19.7422 3.23075C19.8175 3.30517 19.8773 3.39381 19.9182 3.49152C19.959 3.58924 19.98 3.69409 19.98 3.8L20 20.2Z" fill="#6A60A7"/>
<path d="M7.53 19L9.78 17L7.53 15V19Z" fill="#6A60A7"/>
<path d="M13.22 10C11.9407 10.0319 10.6747 10.2682 9.47 10.7V5H7.47V13.65L8.88 13C10.2382 12.4112 11.6915 12.0725 13.17 12C14.17 12 14.42 12.55 14.42 13.05V19.05H16.42V13C16.4466 12.6129 16.3889 12.2247 16.2507 11.8621C16.1126 11.4995 15.8974 11.1713 15.62 10.9C15.3012 10.5961 14.9243 10.3597 14.5119 10.205C14.0994 10.0504 13.66 9.98065 13.22 10V10Z" fill="#6A60A7"/>
<path d="M13 8.25H15C15.8141 7.34465 16.3277 6.20923 16.47 5H14.47C14.2616 6.18987 13.756 7.30779 13 8.25V8.25Z" fill="#6A60A7"/>
</svg>
