<svg width="100" height="100" viewBox="0 0 100 100" fill="none" xmlns="http://www.w3.org/2000/svg">
<g clip-path="url(#clip0_0_1)">
<path d="M32.2 71.3C27.6667 71.3 24.1667 70.8 21.7 69.8C19.2333 68.8 17.5333 67.4 16.6 65.6C15.6667 63.8 15.2 61.6667 15.2 59.2C15.2 58 15.3 56.6667 15.5 55.2C15.7 53.6667 15.9333 51.9333 16.2 50C17.4 42.6667 18 36.1667 18 30.5C18 26.7667 17.8333 23.6 17.5 21C17.2333 18.3333 16.3667 15.8 14.9 13.4C14.6333 13 14.4 12.6 14.2 12.2C14 11.7333 13.9 11.3667 13.9 11.1C13.9 10.3 14.3667 9.46667 15.3 8.6C16.2333 7.73333 17.3667 7 18.7 6.4C20.0333 5.8 21.3 5.5 22.5 5.5C24.7667 5.5 26.1667 6.4 26.7 8.2C27.3 10 27.6 12.5667 27.6 15.9C27.6 17.1667 27.4667 19.2 27.2 22C26.9333 24.7333 26.5333 28.2333 26 32.5C25.4667 36.6333 25.0667 40.2 24.8 43.2C24.5333 46.2 24.4 48.6 24.4 50.4C24.4 53.0667 24.7 55.1 25.3 56.5C25.9667 57.8333 27.0333 58.7667 28.5 59.3C29.9667 59.8333 32.0333 60.1 34.7 60.1C37.5667 60.1 40.3 59.8667 42.9 59.4C45.5 58.8667 48.0333 58.0667 50.5 57C50.8333 56.8667 51.1333 56.7667 51.4 56.7C51.6667 56.6333 51.9 56.6 52.1 56.6C52.7 56.6 53.2667 56.9667 53.8 57.7C54.3333 58.4333 54.6 59.4667 54.6 60.8C54.6 63.7333 53 66.0333 49.8 67.7C45.5333 70.1 39.6667 71.3 32.2 71.3Z" fill="#5488F0"/>
<path d="M21.7 69.8L21.3243 70.7267L21.7 69.8ZM16.6 65.6L17.4878 65.1397L17.4878 65.1397L16.6 65.6ZM15.5 55.2L16.4908 55.3351L16.4916 55.3293L15.5 55.2ZM16.2 50L15.2131 49.8385L15.2111 49.8509L15.2094 49.8634L16.2 50ZM17.5 21L16.505 21.0995L16.5063 21.1134L16.5081 21.1272L17.5 21ZM14.9 13.4L15.7533 12.8785L15.743 12.8617L15.732 12.8453L14.9 13.4ZM14.2 12.2L13.2809 12.5939L13.2924 12.6209L13.3056 12.6472L14.2 12.2ZM15.3 8.6L14.6195 7.8672L14.6195 7.8672L15.3 8.6ZM18.7 6.4L18.2896 5.48807L18.2896 5.48807L18.7 6.4ZM26.7 8.2L25.7412 8.48408L25.746 8.50024L25.7513 8.51622L26.7 8.2ZM27.2 22L28.1953 22.0971L28.1955 22.0948L27.2 22ZM26 32.5L26.9918 32.628L26.9923 32.624L26 32.5ZM24.8 43.2L25.7961 43.2885L25.7961 43.2885L24.8 43.2ZM25.3 56.5L24.3809 56.8939L24.3924 56.9209L24.4056 56.9472L25.3 56.5ZM28.5 59.3L28.8417 58.3602L28.8417 58.3602L28.5 59.3ZM42.9 59.4L43.0767 60.3843L43.0888 60.3821L43.1009 60.3796L42.9 59.4ZM50.5 57L50.1286 56.0715L50.1158 56.0767L50.1031 56.0821L50.5 57ZM53.8 57.7L52.9913 58.2882L52.9913 58.2882L53.8 57.7ZM49.8 67.7L49.3381 66.8131L49.3238 66.8205L49.3097 66.8284L49.8 67.7ZM32.2 70.3C27.7177 70.3 24.3675 69.8024 22.0757 68.8733L21.3243 70.7267C23.9658 71.7976 27.6156 72.3 32.2 72.3V70.3ZM22.0757 68.8733C19.7597 67.9344 18.281 66.6695 17.4878 65.1397L15.7122 66.0603C16.7857 68.1305 18.7069 69.6656 21.3243 70.7267L22.0757 68.8733ZM17.4878 65.1397C16.6425 63.5095 16.2 61.5407 16.2 59.2H14.2C14.2 61.7926 14.6909 64.0905 15.7122 66.0603L17.4878 65.1397ZM16.2 59.2C16.2 58.0542 16.2956 56.7669 16.4908 55.3351L14.5092 55.0649C14.3044 56.5664 14.2 57.9458 14.2 59.2H16.2ZM16.4916 55.3293C16.6912 53.799 16.9242 52.0681 17.1906 50.1366L15.2094 49.8634C14.9425 51.7985 14.7088 53.5344 14.5084 55.0707L16.4916 55.3293ZM17.1869 50.1615C18.3931 42.7902 19 36.2344 19 30.5H17C17 36.0989 16.4069 42.5431 15.2131 49.8385L17.1869 50.1615ZM19 30.5C19 26.7404 18.8324 23.5285 18.4919 20.8728L16.5081 21.1272C16.8343 23.6715 17 26.7929 17 30.5H19ZM18.495 20.9005C18.2127 18.0769 17.2943 15.4002 15.7533 12.8785L14.0467 13.9214C15.439 16.1997 16.254 18.5898 16.505 21.0995L18.495 20.9005ZM15.732 12.8453C15.4867 12.4773 15.2746 12.1131 15.0944 11.7528L13.3056 12.6472C13.5254 13.0869 13.78 13.5227 14.068 13.9547L15.732 12.8453ZM15.1191 11.8061C14.933 11.3717 14.9 11.1579 14.9 11.1H12.9C12.9 11.5754 13.067 12.0949 13.2809 12.5939L15.1191 11.8061ZM14.9 11.1C14.9 10.7058 15.1332 10.1195 15.9805 9.33279L14.6195 7.8672C13.6001 8.8138 12.9 9.89418 12.9 11.1H14.9ZM15.9805 9.33279C16.8233 8.55016 17.8618 7.87378 19.1104 7.31192L18.2896 5.48807C16.8715 6.12621 15.6434 6.9165 14.6195 7.8672L15.9805 9.33279ZM19.1104 7.31192C20.3422 6.75757 21.4689 6.5 22.5 6.5V4.5C21.1311 4.5 19.7244 4.84242 18.2896 5.48807L19.1104 7.31192ZM22.5 6.5C23.5088 6.5 24.2191 6.70106 24.7092 7.01617C25.1817 7.31991 25.5333 7.7825 25.7412 8.48408L27.6588 7.91591C27.3333 6.8175 26.7183 5.93009 25.7908 5.33382C24.8809 4.74893 23.7578 4.5 22.5 4.5V6.5ZM25.7513 8.51622C26.3009 10.1651 26.6 12.6058 26.6 15.9H28.6C28.6 12.5275 28.2991 9.83494 27.6487 7.88377L25.7513 8.51622ZM26.6 15.9C26.6 17.1155 26.4709 19.1082 26.2045 21.9052L28.1955 22.0948C28.4625 19.2917 28.6 17.2178 28.6 15.9H26.6ZM26.2047 21.9029C25.9393 24.6237 25.5405 28.1139 25.0077 32.376L26.9923 32.624C27.5262 28.3528 27.9274 24.843 28.1953 22.0971L26.2047 21.9029ZM25.0082 32.372C24.4738 36.5139 24.0721 40.0944 23.8039 43.1115L25.7961 43.2885C26.0612 40.3056 26.4595 36.7528 26.9918 32.628L25.0082 32.372ZM23.8039 43.1115C23.5361 46.1242 23.4 48.5574 23.4 50.4H25.4C25.4 48.6426 25.5305 46.2758 25.7961 43.2885L23.8039 43.1115ZM23.4 50.4C23.4 53.1156 23.7016 55.309 24.3809 56.8939L26.2191 56.1061C25.6984 54.891 25.4 53.0178 25.4 50.4H23.4ZM24.4056 56.9472C25.1925 58.521 26.4636 59.6235 28.1583 60.2398L28.8417 58.3602C27.6031 57.9098 26.7409 57.1457 26.1944 56.0528L24.4056 56.9472ZM28.1583 60.2398C29.7854 60.8315 31.9873 61.1 34.7 61.1V59.1C32.0794 59.1 30.1479 58.8352 28.8417 58.3602L28.1583 60.2398ZM34.7 61.1C37.6209 61.1 40.4137 60.8622 43.0767 60.3843L42.7233 58.4157C40.1863 58.8711 37.5124 59.1 34.7 59.1V61.1ZM43.1009 60.3796C45.7691 59.8323 48.368 59.0114 50.8969 57.9179L50.1031 56.0821C47.6987 57.1219 45.2309 57.901 42.6991 58.4204L43.1009 60.3796ZM50.8714 57.9285C51.1747 57.8072 51.4306 57.7231 51.6425 57.6701L51.1575 55.7299C50.8361 55.8102 50.492 55.9262 50.1286 56.0715L50.8714 57.9285ZM51.6425 57.6701C51.8572 57.6165 52.0058 57.6 52.1 57.6V55.6C51.7942 55.6 51.4762 55.6502 51.1575 55.7299L51.6425 57.6701ZM52.1 57.6C52.2414 57.6 52.5461 57.6761 52.9913 58.2882L54.6087 57.1118C53.9872 56.2572 53.1586 55.6 52.1 55.6V57.6ZM52.9913 58.2882C53.3542 58.7872 53.6 59.5831 53.6 60.8H55.6C55.6 59.3502 55.3125 58.0795 54.6087 57.1118L52.9913 58.2882ZM53.6 60.8C53.6 63.2681 52.2982 65.2713 49.3381 66.8131L50.2619 68.5869C53.7018 66.7953 55.6 64.1985 55.6 60.8H53.6ZM49.3097 66.8284C45.2513 69.1113 39.5777 70.3 32.2 70.3V72.3C39.7556 72.3 45.8153 71.0887 50.2903 68.5716L49.3097 66.8284Z" fill="#393939"/>
<path d="M52 95.6C49.7333 95.6 47.9667 94.8667 46.7 93.4C45.5 91.8667 44.8 89.2333 44.6 85.5C44.4667 81.5667 44.1333 77.6667 43.6 73.8C43.1333 69.8667 42.4667 66.2 41.6 62.8C40.4667 57.8667 38.9333 53.3333 37 49.2C35.1333 45 32.5333 41.5667 29.2 38.9C28.6667 38.4333 28.2333 38 27.9 37.6C27.5667 37.1333 27.4 36.5667 27.4 35.9C27.4 34.4333 28.1333 33.0333 29.6 31.7C31.1333 30.3667 32.9 29.7 34.9 29.7C37.2333 29.7 39.2333 30.6667 40.9 32.6C42.5667 34.5333 44.0667 37.2333 45.4 40.7C47.6667 46.1667 49.3 52.3 50.3 59.1C51.3667 65.8333 51.9667 72.3333 52.1 78.6C52.1667 80.4667 52.4333 81.7333 52.9 82.4C53.3667 83 54.1667 83.3 55.3 83.3C57.7 83.3 60.0333 82.3667 62.3 80.5C64.6333 78.6333 66.7333 76.1 68.6 72.9C70.5333 69.7 72.0667 66.0667 73.2 62C74.3333 57.9333 74.9 53.6667 74.9 49.2C74.9 46.4667 74.7 44.2667 74.3 42.6C73.9667 40.8667 73.5667 39.5 73.1 38.5C72.5 37.1667 72.2 36.1 72.2 35.3C72.2 34.3 72.6667 33.3667 73.6 32.5C74.5333 31.6333 75.6 30.9333 76.8 30.4C78.0667 29.8 79.2 29.5 80.2 29.5C81.5333 29.5 82.5 30 83.1 31C83.7 31.9333 84.1 33.1333 84.3 34.6C84.5 36.0667 84.6 37.5667 84.6 39.1C84.6 43.7 84.0667 48.5667 83 53.7C81.9333 58.8333 80.4 63.9 78.4 68.9C76.4667 73.8333 74.1333 78.3333 71.4 82.4C68.7333 86.4 65.7667 89.6 62.5 92C59.2333 94.4 55.7333 95.6 52 95.6Z" fill="#84ADFF"/>
<path d="M46.7 93.4L45.9125 94.0163L45.9274 94.0353L45.9432 94.0536L46.7 93.4ZM44.6 85.5L43.6006 85.5339L43.6009 85.5437L43.6014 85.5535L44.6 85.5ZM43.6 73.8L42.607 73.9178L42.6081 73.9272L42.6094 73.9366L43.6 73.8ZM41.6 62.8L40.6254 63.0239L40.628 63.0355L40.631 63.047L41.6 62.8ZM37 49.2L36.0862 49.6061L36.0901 49.6149L36.0942 49.6237L37 49.2ZM29.2 38.9L28.5415 39.6526L28.5581 39.6671L28.5753 39.6809L29.2 38.9ZM27.9 37.6L27.0863 38.1812L27.1079 38.2116L27.1318 38.2402L27.9 37.6ZM29.6 31.7L28.9438 30.9454L28.9355 30.9526L28.9273 30.9601L29.6 31.7ZM40.9 32.6L40.1426 33.2529L40.9 32.6ZM45.4 40.7L44.4667 41.059L44.4713 41.0711L44.4763 41.083L45.4 40.7ZM50.3 59.1L49.3106 59.2455L49.3123 59.2565L50.3 59.1ZM52.1 78.6L51.1002 78.6213L51.1004 78.6285L51.1006 78.6357L52.1 78.6ZM52.9 82.4L52.0808 82.9735L52.0952 82.9941L52.1106 83.0139L52.9 82.4ZM62.3 80.5L61.6753 79.7191L61.6698 79.7236L61.6643 79.7281L62.3 80.5ZM68.6 72.9L67.7441 72.3829L67.7401 72.3895L67.7362 72.3961L68.6 72.9ZM73.2 62L72.2367 61.7315L72.2367 61.7315L73.2 62ZM74.3 42.6L73.318 42.7888L73.3223 42.8112L73.3276 42.8334L74.3 42.6ZM73.1 38.5L72.188 38.9104L72.1938 38.9229L73.1 38.5ZM73.6 32.5L74.2805 33.2328L74.2805 33.2328L73.6 32.5ZM76.8 30.4L77.2061 31.3138L77.2172 31.3089L77.2281 31.3037L76.8 30.4ZM83.1 31L82.2425 31.5145L82.2505 31.5277L82.2588 31.5408L83.1 31ZM83 53.7L82.0209 53.4966L82.0209 53.4966L83 53.7ZM78.4 68.9L77.4715 68.5286L77.4689 68.5351L78.4 68.9ZM71.4 82.4L70.57 81.8422L70.568 81.8453L71.4 82.4ZM62.5 92L63.0921 92.8059L63.0921 92.8059L62.5 92ZM52 94.6C49.9695 94.6 48.5006 93.955 47.4568 92.7464L45.9432 94.0536C47.4327 95.7784 49.4972 96.6 52 96.6V94.6ZM47.4875 92.7837C46.4857 91.5036 45.7961 89.1346 45.5986 85.4465L43.6014 85.5535C43.8039 89.332 44.5143 92.2298 45.9125 94.0163L47.4875 92.7837ZM45.5994 85.4661C45.4649 81.4987 45.1287 77.5644 44.5906 73.6634L42.6094 73.9366C43.138 77.7689 43.4684 81.6346 43.6006 85.5339L45.5994 85.4661ZM44.593 73.6822C44.1218 69.7108 43.4478 66.0005 42.569 62.553L40.631 63.047C41.4855 66.3995 42.1448 70.0226 42.607 73.9178L44.593 73.6822ZM42.5746 62.5761C41.4272 57.5813 39.8721 52.9801 37.9058 48.7763L36.0942 49.6237C37.9946 53.6865 39.5062 58.152 40.6254 63.0239L42.5746 62.5761ZM37.9138 48.7939C35.9873 44.4591 33.2925 40.8933 29.8247 38.1191L28.5753 39.6809C31.7742 42.24 34.2794 45.5409 36.0862 49.6061L37.9138 48.7939ZM29.8585 38.1474C29.3516 37.7039 28.9585 37.3081 28.6682 36.9598L27.1318 38.2402C27.5082 38.6919 27.9818 39.1628 28.5415 39.6526L29.8585 38.1474ZM28.7137 37.0188C28.5204 36.7481 28.4 36.3932 28.4 35.9H26.4C26.4 36.7401 26.6129 37.5186 27.0863 38.1812L28.7137 37.0188ZM28.4 35.9C28.4 34.8041 28.938 33.6533 30.2727 32.4399L28.9273 30.9601C27.3287 32.4134 26.4 34.0626 26.4 35.9H28.4ZM30.2562 32.4546C31.6107 31.2767 33.1454 30.7 34.9 30.7V28.7C32.6546 28.7 30.6559 29.4566 28.9438 30.9454L30.2562 32.4546ZM34.9 30.7C36.9129 30.7 38.6458 31.5166 40.1426 33.2529L41.6574 31.9471C39.8209 29.8167 37.5537 28.7 34.9 28.7V30.7ZM40.1426 33.2529C41.7083 35.0692 43.1575 37.6552 44.4667 41.059L46.3333 40.341C44.9758 36.8114 43.425 33.9975 41.6574 31.9471L40.1426 33.2529ZM44.4763 41.083C46.7068 46.4624 48.3208 52.5143 49.3106 59.2455L51.2894 58.9545C50.2792 52.0857 48.6266 45.8709 46.3237 40.317L44.4763 41.083ZM49.3123 59.2565C50.3725 65.9489 50.9679 72.4036 51.1002 78.6213L53.0998 78.5787C52.9654 72.263 52.3608 65.7178 51.2877 58.9435L49.3123 59.2565ZM51.1006 78.6357C51.1352 79.6035 51.2224 80.448 51.3715 81.156C51.518 81.8523 51.7379 82.4837 52.0808 82.9735L53.7192 81.8265C53.5954 81.6497 53.4486 81.3144 53.3286 80.744C53.2109 80.1853 53.1315 79.4632 53.0994 78.5643L51.1006 78.6357ZM52.1106 83.0139C52.8456 83.9589 54.0145 84.3 55.3 84.3V82.3C54.3188 82.3 53.8877 82.0411 53.6894 81.7861L52.1106 83.0139ZM55.3 84.3C57.9804 84.3 60.5314 83.252 62.9357 81.2719L61.6643 79.7281C59.5353 81.4814 57.4196 82.3 55.3 82.3V84.3ZM62.9247 81.2809C65.374 79.3214 67.5495 76.6855 69.4638 73.4039L67.7362 72.3961C65.9172 75.5145 63.8926 77.9453 61.6753 79.7191L62.9247 81.2809ZM69.4559 73.4171C71.4418 70.1302 73.0087 66.4114 74.1633 62.2685L72.2367 61.7315C71.1246 65.7219 69.6249 69.2698 67.7441 72.3829L69.4559 73.4171ZM74.1633 62.2685C75.3224 58.1095 75.9 53.7521 75.9 49.2H73.9C73.9 53.5812 73.3443 57.7572 72.2367 61.7315L74.1633 62.2685ZM75.9 49.2C75.9 46.4286 75.6983 44.1411 75.2724 42.3666L73.3276 42.8334C73.7017 44.3923 73.9 46.5047 73.9 49.2H75.9ZM75.282 42.4112C74.9412 40.639 74.522 39.1825 74.0062 38.0771L72.1938 38.9229C72.6113 39.8175 72.9921 41.0943 73.318 42.7888L75.282 42.4112ZM74.0119 38.0896C73.4298 36.7959 73.2 35.8855 73.2 35.3H71.2C71.2 36.3145 71.5702 37.5374 72.1881 38.9104L74.0119 38.0896ZM73.2 35.3C73.2 34.6497 73.4917 33.9652 74.2805 33.2328L72.9196 31.7672C71.8417 32.7681 71.2 33.9503 71.2 35.3H73.2ZM74.2805 33.2328C75.1305 32.4435 76.1038 31.8038 77.2061 31.3138L76.3939 29.4862C75.0962 30.0629 73.9362 30.8232 72.9196 31.7672L74.2805 33.2328ZM77.2281 31.3037C78.4112 30.7433 79.3951 30.5 80.2 30.5V28.5C79.0049 28.5 77.7221 28.8567 76.3719 29.4963L77.2281 31.3037ZM80.2 30.5C81.242 30.5 81.8521 30.8637 82.2425 31.5145L83.9575 30.4855C83.1479 29.1362 81.8247 28.5 80.2 28.5V30.5ZM82.2588 31.5408C82.7582 32.3176 83.1226 33.367 83.3092 34.7351L85.2908 34.4649C85.0774 32.8996 84.6418 31.549 83.9412 30.4592L82.2588 31.5408ZM83.3092 34.7351C83.5029 36.1554 83.6 37.6102 83.6 39.1H85.6C85.6 37.5231 85.4972 35.9779 85.2908 34.4649L83.3092 34.7351ZM83.6 39.1C83.6 43.6229 83.0756 48.421 82.0209 53.4966L83.9791 53.9034C85.0578 48.7123 85.6 43.7771 85.6 39.1H83.6ZM82.0209 53.4966C80.9665 58.571 79.4504 63.5815 77.4715 68.5286L79.3285 69.2714C81.3496 64.2185 82.9002 59.0957 83.9791 53.9034L82.0209 53.4966ZM77.4689 68.5351C75.56 73.4061 73.2596 77.8406 70.5701 81.8422L72.23 82.9578C75.0071 78.826 77.3733 74.2606 79.3311 69.2649L77.4689 68.5351ZM70.568 81.8453C67.9543 85.7658 65.0649 88.8747 61.9079 91.1941L63.0921 92.8059C66.4685 90.3253 69.5124 87.0342 72.2321 82.9547L70.568 81.8453ZM61.9079 91.1941C58.7974 93.4794 55.5018 94.6 52 94.6V96.6C55.9649 96.6 59.6693 95.3206 63.0921 92.8059L61.9079 91.1941Z" fill="#393939"/>
</g>
<defs>
<clipPath id="clip0_0_1">
<rect width="100" height="100" fill="white"/>
</clipPath>
</defs>
</svg>
